<svg width="58" height="58" viewBox="0 0 58 58" fill="none" xmlns="http://www.w3.org/2000/svg">
<g filter="url(#filter0_d_14_887)">
<rect x="5" y="5" width="48" height="48" rx="10" fill="white" shape-rendering="crispEdges"/>
<path fill-rule="evenodd" clip-rule="evenodd" d="M37.6665 26.9043H19.8425C19.4285 26.9043 19.0925 26.5683 19.0925 26.1543C19.0925 25.7403 19.4285 25.4043 19.8425 25.4043H37.6665C38.0805 25.4043 38.4165 25.7403 38.4165 26.1543C38.4165 26.5683 38.0805 26.9043 37.6665 26.9043Z" fill="#8456EC"/>
<path fill-rule="evenodd" clip-rule="evenodd" d="M33.2011 30.8096C32.7871 30.8096 32.4471 30.4736 32.4471 30.0596C32.4471 29.6456 32.7781 29.3096 33.1921 29.3096H33.2011C33.6151 29.3096 33.9511 29.6456 33.9511 30.0596C33.9511 30.4736 33.6151 30.8096 33.2011 30.8096Z" fill="#8456EC"/>
<path fill-rule="evenodd" clip-rule="evenodd" d="M28.7636 30.8096C28.3496 30.8096 28.0096 30.4736 28.0096 30.0596C28.0096 29.6456 28.3406 29.3096 28.7546 29.3096H28.7636C29.1776 29.3096 29.5136 29.6456 29.5136 30.0596C29.5136 30.4736 29.1776 30.8096 28.7636 30.8096Z" fill="#8456EC"/>
<path fill-rule="evenodd" clip-rule="evenodd" d="M24.3169 30.8096C23.9029 30.8096 23.5619 30.4736 23.5619 30.0596C23.5619 29.6456 23.8939 29.3096 24.3079 29.3096H24.3169C24.7309 29.3096 25.0669 29.6456 25.0669 30.0596C25.0669 30.4736 24.7309 30.8096 24.3169 30.8096Z" fill="#8456EC"/>
<path fill-rule="evenodd" clip-rule="evenodd" d="M33.2011 34.6963C32.7871 34.6963 32.4471 34.3603 32.4471 33.9463C32.4471 33.5323 32.7781 33.1963 33.1921 33.1963H33.2011C33.6151 33.1963 33.9511 33.5323 33.9511 33.9463C33.9511 34.3603 33.6151 34.6963 33.2011 34.6963Z" fill="#8456EC"/>
<path fill-rule="evenodd" clip-rule="evenodd" d="M28.7636 34.6963C28.3496 34.6963 28.0096 34.3603 28.0096 33.9463C28.0096 33.5323 28.3406 33.1963 28.7546 33.1963H28.7636C29.1776 33.1963 29.5136 33.5323 29.5136 33.9463C29.5136 34.3603 29.1776 34.6963 28.7636 34.6963Z" fill="#8456EC"/>
<path fill-rule="evenodd" clip-rule="evenodd" d="M24.3169 34.6963C23.9029 34.6963 23.5619 34.3603 23.5619 33.9463C23.5619 33.5323 23.8939 33.1963 24.3079 33.1963H24.3169C24.7309 33.1963 25.0669 33.5323 25.0669 33.9463C25.0669 34.3603 24.7309 34.6963 24.3169 34.6963Z" fill="#8456EC"/>
<path fill-rule="evenodd" clip-rule="evenodd" d="M32.7935 22.791C32.3795 22.791 32.0435 22.455 32.0435 22.041V18.75C32.0435 18.336 32.3795 18 32.7935 18C33.2075 18 33.5435 18.336 33.5435 18.75V22.041C33.5435 22.455 33.2075 22.791 32.7935 22.791Z" fill="#8456EC"/>
<path fill-rule="evenodd" clip-rule="evenodd" d="M24.7153 22.791C24.3013 22.791 23.9653 22.455 23.9653 22.041V18.75C23.9653 18.336 24.3013 18 24.7153 18C25.1293 18 25.4653 18.336 25.4653 18.75V22.041C25.4653 22.455 25.1293 22.791 24.7153 22.791Z" fill="#8456EC"/>
<mask id="mask0_14_887" style="mask-type:alpha" maskUnits="userSpaceOnUse" x="19" y="19" width="20" height="21">
<path fill-rule="evenodd" clip-rule="evenodd" d="M19 19.5791H38.5V39.5H19V19.5791Z" fill="white"/>
</mask>
<g mask="url(#mask0_14_887)">
<path fill-rule="evenodd" clip-rule="evenodd" d="M24.521 21.0791C21.928 21.0791 20.5 22.4621 20.5 24.9731V34.0221C20.5 36.5881 21.928 38.0001 24.521 38.0001H32.979C35.572 38.0001 37 36.6141 37 34.0981V24.9731C37.004 23.7381 36.672 22.7781 36.013 22.1181C35.335 21.4381 34.29 21.0791 32.988 21.0791H24.521ZM32.979 39.5001H24.521C21.116 39.5001 19 37.4011 19 34.0221V24.9731C19 21.6451 21.116 19.5791 24.521 19.5791H32.988C34.697 19.5791 36.11 20.0911 37.075 21.0581C38.012 21.9991 38.505 23.3521 38.5 24.9751V34.0981C38.5 37.4301 36.384 39.5001 32.979 39.5001Z" fill="#8456EC"/>
</g>
</g>
<defs>
<filter id="filter0_d_14_887" x="0" y="0" width="58" height="58" filterUnits="userSpaceOnUse" color-interpolation-filters="sRGB">
<feFlood flood-opacity="0" result="BackgroundImageFix"/>
<feColorMatrix in="SourceAlpha" type="matrix" values="0 0 0 0 0 0 0 0 0 0 0 0 0 0 0 0 0 0 127 0" result="hardAlpha"/>
<feOffset/>
<feGaussianBlur stdDeviation="2.5"/>
<feComposite in2="hardAlpha" operator="out"/>
<feColorMatrix type="matrix" values="0 0 0 0 0 0 0 0 0 0 0 0 0 0 0 0 0 0 0.1 0"/>
<feBlend mode="normal" in2="BackgroundImageFix" result="effect1_dropShadow_14_887"/>
<feBlend mode="normal" in="SourceGraphic" in2="effect1_dropShadow_14_887" result="shape"/>
</filter>
</defs>
</svg>
