<svg width="58" height="58" viewBox="0 0 58 58" fill="none" xmlns="http://www.w3.org/2000/svg">
<g filter="url(#filter0_d_14_878)">
<rect x="5" y="5" width="48" height="48" rx="10" fill="white" shape-rendering="crispEdges"/>
<path fill-rule="evenodd" clip-rule="evenodd" d="M29.2505 25.5C28.2855 25.5 27.5005 26.285 27.5005 27.251C27.5005 28.216 28.2855 29 29.2505 29C30.2155 29 31.0005 28.216 31.0005 27.251C31.0005 26.285 30.2155 25.5 29.2505 25.5ZM29.2505 30.5C27.4585 30.5 26.0005 29.043 26.0005 27.251C26.0005 25.458 27.4585 24 29.2505 24C31.0425 24 32.5005 25.458 32.5005 27.251C32.5005 29.043 31.0425 30.5 29.2505 30.5Z" fill="#8456EC"/>
<mask id="mask0_14_878" style="mask-type:alpha" maskUnits="userSpaceOnUse" x="21" y="19" width="17" height="20">
<path fill-rule="evenodd" clip-rule="evenodd" d="M21 19H37.4995V38.5H21V19Z" fill="white"/>
</mask>
<g mask="url(#mask0_14_878)">
<path fill-rule="evenodd" clip-rule="evenodd" d="M29.2495 20.5C25.5275 20.5 22.4995 23.557 22.4995 27.313C22.4995 32.092 28.1235 36.748 29.2495 36.996C30.3755 36.747 35.9995 32.091 35.9995 27.313C35.9995 23.557 32.9715 20.5 29.2495 20.5ZM29.2495 38.5C27.4555 38.5 20.9995 32.948 20.9995 27.313C20.9995 22.729 24.7005 19 29.2495 19C33.7985 19 37.4995 22.729 37.4995 27.313C37.4995 32.948 31.0435 38.5 29.2495 38.5Z" fill="#8456EC"/>
</g>
</g>
<defs>
<filter id="filter0_d_14_878" x="0" y="0" width="58" height="58" filterUnits="userSpaceOnUse" color-interpolation-filters="sRGB">
<feFlood flood-opacity="0" result="BackgroundImageFix"/>
<feColorMatrix in="SourceAlpha" type="matrix" values="0 0 0 0 0 0 0 0 0 0 0 0 0 0 0 0 0 0 127 0" result="hardAlpha"/>
<feOffset/>
<feGaussianBlur stdDeviation="2.5"/>
<feComposite in2="hardAlpha" operator="out"/>
<feColorMatrix type="matrix" values="0 0 0 0 0 0 0 0 0 0 0 0 0 0 0 0 0 0 0.1 0"/>
<feBlend mode="normal" in2="BackgroundImageFix" result="effect1_dropShadow_14_878"/>
<feBlend mode="normal" in="SourceGraphic" in2="effect1_dropShadow_14_878" result="shape"/>
</filter>
</defs>
</svg>
