<svg xmlns="http://www.w3.org/2000/svg" viewBox="0 0 1682 450"><g clip-path="url(#a)"><path fill="url(#b)" d="M401.7 23.8H0v403.4h401.7V23.8Z"/><path stroke="#fff" stroke-linecap="round" stroke-width=".2" d="M0 23.8h401.7v403.4H0V23.8Zm0 0s0 0 0 0Z"/><path fill="#fff" d="m196.3 310.3-2.1-.1c-1.9-.1-7.4-.8-9.9-1.3l-9.1-2.4a86.3 86.3 0 0 1-38.6-26.5c-4.4-5.2-5.6-7.4-5.3-10.8a9.6 9.6 0 0 1 5.2-7.7c1.8-.9 2-.9 4.2-.9 2.5 0 3.4.3 5.1 1.5 1.5 1 1.8 1.3 4 4.1a79.8 79.8 0 0 0 17.9 16l1.6.9a67.3 67.3 0 0 0 20.1 7.4c4 .6 5 .7 10.4.7a50.8 50.8 0 0 0 15.7-2 62.3 62.3 0 0 0 16.2-6.6 88 88 0 0 0 9.4-6.3 91.8 91.8 0 0 0 13.4-13.8c2.9-4.2 5-6 7.8-6.7 2.7-.7 5.7-.1 7.9 1.5a12 12 0 0 1 3 3.9c.7 1.8.9 3.1.6 4.7-.3 2.5-1 4-3.7 7.5l-1.4 1.8a105.8 105.8 0 0 1-25 22.4l-.7.4a4395.2 4395.2 0 0 1-4.8 2.7 70.5 70.5 0 0 1-13 5.6 85.3 85.3 0 0 1-28.9 4ZM118.5 255l-4-.3a141 141 0 0 1-15.2-1.5c-4-.5-6.3-1.7-8-4a9 9 0 0 1-1.8-3.5 11 11 0 0 1 .1-5.7c.4-1.1 1.6-3 2.5-3.9a6 6 0 0 1 2.4-1.5c.2 0 .3-.1.3-.2l1.2-.5a17 17 0 0 1 6.5-.2c7.2 1.1 14.2 1.6 23.1 1.7a214.7 214.7 0 0 0 71.5-12.3l3.3-1.2a143.7 143.7 0 0 0 39.5-22.6 52 52 0 0 0 12-14.5c.5-.3 2.3-5.2 2.7-7.3.4-2.5.3-8.2-.3-9.8-.8-2.3-2-4.7-3-6.2-.7-1-3-3.4-4.4-4.3a26.5 26.5 0 0 0-9.6-4 54.6 54.6 0 0 0-18.4-.4 90.8 90.8 0 0 0-26.6 8.6c-4.6 2.3-7.6 4-12 7a100.7 100.7 0 0 0-35 39.1 55 55 0 0 0-3.6 13c0 1-.4 1.9-1 3a9.5 9.5 0 0 1-10.8 5.3 9 9 0 0 1-5-2.9c-1-1-2.1-3-2.5-4.3-.6-2.7.4-9.1 2.3-15.3a63.3 63.3 0 0 1 1.6-4.5c1.9-5 5.2-11.3 9-16.8a123 123 0 0 1 39-36.3 132.3 132.3 0 0 1 30-12.9 102 102 0 0 1 16.3-3 100.6 100.6 0 0 1 17.8.6l2.9.5A54.8 54.8 0 0 1 255 139a37.9 37.9 0 0 1 19.2 31 42.7 42.7 0 0 1-5.2 24.2 60 60 0 0 1-6.1 9.3 91.8 91.8 0 0 1-15.8 15.3 140 140 0 0 1-31.9 18.2 93.7 93.7 0 0 0-5.9 2.4c-.7.3-2.2 1-3.3 1.3a256.7 256.7 0 0 1-35.1 9.9 312 312 0 0 1-25.9 3.6l-5.7.5c-2 .1-19 .3-20.8.2Zm135.8-85c0-.2 0-.3.1-.2v.4-.2Z"/></g><path fill="url(#c)" d="M684.2 243.6c0 4.8-.3 9.8-.9 15h-116a35.9 35.9 0 0 0 9.8 24c6 5.4 13.3 8.1 22 8.1 12.7 0 21.6-5.4 26.6-16.2h54.6a74 74 0 0 1-15.3 29.7 74.4 74.4 0 0 1-27.3 20.7c-11 5-23.3 7.5-36.9 7.5-16.4 0-31-3.5-43.8-10.5-12.8-7-22.8-17-30-30a92.6 92.6 0 0 1-10.8-45.6c0-17.4 3.5-32.6 10.5-45.6 7.2-13 17.2-23 30-30a90.4 90.4 0 0 1 44.1-10.5c16.2 0 30.6 3.4 43.2 10.2a72.3 72.3 0 0 1 29.4 29.1 87.3 87.3 0 0 1 10.8 44.1Zm-52.5-13.5c0-8.8-3-15.8-9-21-6-5.2-13.5-7.8-22.5-7.8a33 33 0 0 0-21.9 7.5c-5.8 5-9.4 12.1-10.8 21.3h64.2Zm181.6-69.3A60 60 0 0 1 860 180c11.8 12.6 17.7 30 17.7 52.2V330h-51v-90.9c0-11.2-3-19.9-8.7-26a30.5 30.5 0 0 0-23.4-9.4c-9.8 0-17.6 3.1-23.4 9.3a36.7 36.7 0 0 0-8.7 26.1V330h-51.3V162.6h51.3v22.2a53 53 0 0 1 21-17.4 65.5 65.5 0 0 1 29.7-6.6ZM988.7 282l36.3-119.4h54.6L1020.2 330H957l-59.4-167.4h55l36 119.4ZM1127 145.2a32 32 0 0 1-22.2-7.8c-5.6-5.4-8.4-12-8.4-19.8 0-8 2.8-14.6 8.4-19.8a31.3 31.3 0 0 1 22.2-8c8.8 0 16 2.6 21.6 8a25.4 25.4 0 0 1 8.7 19.8 26 26 0 0 1-8.7 19.8 30.5 30.5 0 0 1-21.6 7.8Zm25.5 17.4V330h-51.3V162.6h51.3ZM1283 286.5V330h-26.1c-18.6 0-33.1-4.5-43.5-13.5-10.4-9.2-15.6-24.1-15.6-44.7v-66.6h-20.4v-42.6h20.4v-40.8h51.3v40.8h33.6v42.6H1249v67.2c0 5 1.2 8.6 3.6 10.8 2.4 2.2 6.4 3.3 12 3.3h18.3Zm186.3-42.9c0 4.8-.3 9.8-.9 15h-116a35.9 35.9 0 0 0 9.8 24c6 5.4 13.3 8.1 22 8.1 12.7 0 21.6-5.4 26.6-16.2h54.6a74 74 0 0 1-15.3 29.7 74.5 74.5 0 0 1-27.3 20.7c-11 5-23.3 7.5-36.9 7.5-16.4 0-31-3.5-43.8-10.5-12.8-7-22.8-17-30-30a92.6 92.6 0 0 1-10.8-45.6c0-17.4 3.5-32.6 10.5-45.6 7.2-13 17.2-23 30-30a90.4 90.4 0 0 1 44.1-10.5c16.2 0 30.6 3.4 43.2 10.2a72.3 72.3 0 0 1 29.4 29.1 87.3 87.3 0 0 1 10.8 44.1Zm-52.5-13.5c0-8.8-3-15.8-9-21-6-5.2-13.5-7.8-22.5-7.8a33 33 0 0 0-21.9 7.5c-5.8 5-9.4 12.1-10.8 21.3h64.2Zm69.4 16c0-17.3 3.2-32.4 9.6-45.4 6.6-13 15.5-23 26.7-30a69.3 69.3 0 0 1 37.5-10.5c11 0 21 2.3 30 7a54.7 54.7 0 0 1 21.6 18.5V108h51.3v222h-51.3v-24a52 52 0 0 1-20.7 19.2 63.5 63.5 0 0 1-31 7.2 69.3 69.3 0 0 1-64.1-40.8 103.3 103.3 0 0 1-9.6-45.6Zm125.4.2c0-12.8-3.6-22.9-10.8-30.3a34.1 34.1 0 0 0-25.8-11 35 35 0 0 0-26.1 11 41.2 41.2 0 0 0-10.5 30c0 12.8 3.5 23 10.5 30.6a35 35 0 0 0 26 11.1c10.3 0 18.9-3.7 25.9-11a41.6 41.6 0 0 0 10.8-30.4Z"/><path fill="url(#d)" d="M684.2 243.6c0 4.8-.3 9.8-.9 15h-116a35.9 35.9 0 0 0 9.8 24c6 5.4 13.3 8.1 22 8.1 12.7 0 21.6-5.4 26.6-16.2h54.6a74 74 0 0 1-15.3 29.7 74.4 74.4 0 0 1-27.3 20.7c-11 5-23.3 7.5-36.9 7.5-16.4 0-31-3.5-43.8-10.5-12.8-7-22.8-17-30-30a92.6 92.6 0 0 1-10.8-45.6c0-17.4 3.5-32.6 10.5-45.6 7.2-13 17.2-23 30-30a90.4 90.4 0 0 1 44.1-10.5c16.2 0 30.6 3.4 43.2 10.2a72.3 72.3 0 0 1 29.4 29.1 87.3 87.3 0 0 1 10.8 44.1Zm-52.5-13.5c0-8.8-3-15.8-9-21-6-5.2-13.5-7.8-22.5-7.8a33 33 0 0 0-21.9 7.5c-5.8 5-9.4 12.1-10.8 21.3h64.2Zm181.6-69.3A60 60 0 0 1 860 180c11.8 12.6 17.7 30 17.7 52.2V330h-51v-90.9c0-11.2-3-19.9-8.7-26a30.5 30.5 0 0 0-23.4-9.4c-9.8 0-17.6 3.1-23.4 9.3a36.7 36.7 0 0 0-8.7 26.1V330h-51.3V162.6h51.3v22.2a53 53 0 0 1 21-17.4 65.5 65.5 0 0 1 29.7-6.6ZM988.7 282l36.3-119.4h54.6L1020.2 330H957l-59.4-167.4h55l36 119.4ZM1127 145.2a32 32 0 0 1-22.2-7.8c-5.6-5.4-8.4-12-8.4-19.8 0-8 2.8-14.6 8.4-19.8a31.3 31.3 0 0 1 22.2-8c8.8 0 16 2.6 21.6 8a25.4 25.4 0 0 1 8.7 19.8 26 26 0 0 1-8.7 19.8 30.5 30.5 0 0 1-21.6 7.8Zm25.5 17.4V330h-51.3V162.6h51.3ZM1283 286.5V330h-26.1c-18.6 0-33.1-4.5-43.5-13.5-10.4-9.2-15.6-24.1-15.6-44.7v-66.6h-20.4v-42.6h20.4v-40.8h51.3v40.8h33.6v42.6H1249v67.2c0 5 1.2 8.6 3.6 10.8 2.4 2.2 6.4 3.3 12 3.3h18.3Zm186.3-42.9c0 4.8-.3 9.8-.9 15h-116a35.9 35.9 0 0 0 9.8 24c6 5.4 13.3 8.1 22 8.1 12.7 0 21.6-5.4 26.6-16.2h54.6a74 74 0 0 1-15.3 29.7 74.5 74.5 0 0 1-27.3 20.7c-11 5-23.3 7.5-36.9 7.5-16.4 0-31-3.5-43.8-10.5-12.8-7-22.8-17-30-30a92.6 92.6 0 0 1-10.8-45.6c0-17.4 3.5-32.6 10.5-45.6 7.2-13 17.2-23 30-30a90.4 90.4 0 0 1 44.1-10.5c16.2 0 30.6 3.4 43.2 10.2a72.3 72.3 0 0 1 29.4 29.1 87.3 87.3 0 0 1 10.8 44.1Zm-52.5-13.5c0-8.8-3-15.8-9-21-6-5.2-13.5-7.8-22.5-7.8a33 33 0 0 0-21.9 7.5c-5.8 5-9.4 12.1-10.8 21.3h64.2Zm69.4 16c0-17.3 3.2-32.4 9.6-45.4 6.6-13 15.5-23 26.7-30a69.3 69.3 0 0 1 37.5-10.5c11 0 21 2.3 30 7a54.7 54.7 0 0 1 21.6 18.5V108h51.3v222h-51.3v-24a52 52 0 0 1-20.7 19.2 63.5 63.5 0 0 1-31 7.2 69.3 69.3 0 0 1-64.1-40.8 103.3 103.3 0 0 1-9.6-45.6Zm125.4.2c0-12.8-3.6-22.9-10.8-30.3a34.1 34.1 0 0 0-25.8-11 35 35 0 0 0-26.1 11 41.2 41.2 0 0 0-10.5 30c0 12.8 3.5 23 10.5 30.6a35 35 0 0 0 26 11.1c10.3 0 18.9-3.7 25.9-11a41.6 41.6 0 0 0 10.8-30.4Z"/><defs><radialGradient id="b" cx="0" cy="0" r="1" gradientTransform="matrix(357.41985 395.56439 -683.96891 618.01334 365.6 389.7)" gradientUnits="userSpaceOnUse"><stop stop-color="#8456EC"/><stop offset=".2" stop-color="#925BEE"/><stop offset=".5" stop-color="#BF73F7"/><stop offset=".7" stop-color="#E078F7"/><stop offset="1" stop-color="#E87BF8"/></radialGradient><radialGradient id="c" cx="0" cy="0" r="1" gradientTransform="matrix(-1596.93652 -580.25906 1512.18636 -4161.70253 1813.1 450)" gradientUnits="userSpaceOnUse"><stop stop-color="#8456EC"/><stop offset="1" stop-color="#E87BF8"/></radialGradient><radialGradient id="d" cx="0" cy="0" r="1" gradientTransform="matrix(1044.99272 441.4222 -549.56365 1300.99936 1577.5 408.4)" gradientUnits="userSpaceOnUse"><stop stop-color="#8456EC"/><stop offset=".2" stop-color="#925BEE"/><stop offset=".5" stop-color="#BF73F7"/><stop offset=".7" stop-color="#E078F7"/><stop offset="1" stop-color="#E87BF8"/></radialGradient><clipPath id="a"><rect width="401.7" height="401.7" y="23.8" fill="#fff" rx="200.9"/></clipPath></defs></svg>